<?xml version="1.0" standalone="no"?>
<!DOCTYPE svg PUBLIC "-//W3C//DTD SVG 20010904//EN"
 "http://www.w3.org/TR/2001/REC-SVG-20010904/DTD/svg10.dtd">
<svg version="1.0" xmlns="http://www.w3.org/2000/svg"
 width="700.000000pt" height="700.000000pt" viewBox="0 0 700.000000 700.000000"
 preserveAspectRatio="xMidYMid meet">
<metadata>
Created by potrace 1.11, written by Peter Selinger 2001-2013
</metadata>
<g transform="translate(0.000000,700.000000) scale(0.100000,-0.100000)"
fill="#000000" stroke="none">
<path d="M6000 6586 c-30 -13 -73 -31 -95 -41 -22 -10 -42 -19 -45 -20 -3 0
-27 -11 -54 -23 -27 -12 -55 -22 -62 -22 -8 0 -14 -4 -14 -9 0 -8 -51 -33 -67
-33 -4 0 -15 -5 -23 -12 -18 -15 -110 -67 -194 -108 -33 -16 -73 -40 -91 -54
-18 -13 -35 -24 -38 -24 -4 0 -26 -13 -49 -28 -24 -16 -77 -51 -118 -78 -41
-26 -86 -57 -99 -69 -16 -13 -22 -15 -17 -5 4 8 -1 5 -10 -7 -9 -13 -21 -23
-27 -23 -5 0 -29 -16 -53 -35 -23 -19 -47 -35 -52 -35 -6 0 -12 -3 -14 -7 -1
-5 -46 -45 -98 -89 -114 -98 -230 -221 -229 -243 0 -9 15 -28 32 -43 18 -15
51 -43 73 -63 41 -34 120 -144 141 -195 54 -130 67 -201 66 -355 0 -77 -5
-160 -11 -184 -6 -24 -8 -49 -6 -56 3 -7 38 -27 77 -45 40 -18 79 -38 87 -45
37 -29 325 -121 470 -149 14 -2 50 -10 80 -16 30 -6 73 -13 95 -16 33 -4 110
-18 160 -29 84 -17 227 -30 455 -40 58 -2 155 -7 216 -11 75 -4 114 -3 118 5
9 14 17 95 32 321 8 123 8 588 0 701 -15 197 -120 462 -324 817 -38 67 -68
122 -65 122 4 0 -1 8 -9 18 -21 24 -128 201 -128 212 0 9 -40 40 -50 40 -3 -1
-30 -11 -60 -24z"/>
<path d="M3269 6286 c-2 -2 -35 -7 -74 -10 -38 -4 -77 -9 -85 -11 -8 -2 -31
-6 -50 -9 -120 -19 -390 -82 -445 -105 -11 -4 -69 -27 -130 -51 -237 -92 -589
-289 -562 -316 4 -4 155 -8 335 -10 295 -2 439 -7 527 -19 17 -2 53 -7 80 -9
82 -9 285 -45 370 -67 106 -27 279 -86 335 -114 l45 -23 55 40 c67 48 136 84
215 113 l60 22 5 51 c6 61 33 100 83 125 32 16 43 17 94 7 32 -7 106 -29 164
-49 l107 -37 121 117 122 116 -34 16 c-171 81 -510 176 -722 202 -27 4 -61 9
-75 12 -28 6 -535 15 -541 9z"/>
<path d="M2058 5554 c-2 -1 -48 -5 -103 -8 -55 -3 -118 -8 -140 -11 -22 -2
-67 -7 -99 -9 -32 -3 -64 -10 -70 -16 -8 -8 -12 -166 -13 -523 -2 -555 -2
-563 52 -732 27 -84 238 -505 291 -580 12 -17 31 -48 43 -70 24 -46 22 -41
118 -192 40 -63 79 -116 87 -119 17 -7 27 -2 180 89 63 37 119 67 123 67 4 1
24 14 43 30 19 17 37 30 41 30 4 0 57 34 119 75 62 41 116 75 121 75 5 0 9 5
9 10 0 6 7 10 15 10 8 0 15 5 15 10 0 6 7 13 16 17 9 3 28 17 42 29 14 13 30
24 37 24 6 0 21 10 32 23 11 12 35 33 52 47 18 14 43 34 55 45 13 11 41 35 62
54 73 62 174 163 257 254 45 51 88 96 95 100 6 4 12 13 12 18 0 6 16 31 35 56
19 25 35 54 35 63 0 10 -26 45 -57 77 -62 63 -139 194 -129 219 3 8 2 13 -3 9
-5 -3 -12 7 -15 22 -4 16 -9 39 -12 53 -3 14 -8 81 -10 150 -4 141 7 206 57
327 18 42 28 78 23 83 -11 10 -137 60 -179 71 -179 46 -311 74 -395 84 -141
17 -201 23 -335 31 -108 6 -502 13 -507 8z"/>
<path d="M4002 5495 c-178 -42 -324 -182 -387 -369 -42 -126 -24 -295 42 -408
96 -164 290 -282 462 -281 63 0 135 8 151 18 3 2 22 7 40 10 100 18 235 135
292 255 20 41 39 91 44 110 4 19 10 42 12 50 11 36 11 169 1 215 -29 127 -137
271 -255 340 -108 63 -281 89 -402 60z"/>
<path d="M1364 5296 c-44 -44 -201 -263 -266 -371 -161 -266 -311 -681 -352
-970 -3 -22 -8 -50 -10 -62 -13 -64 -19 -180 -20 -378 0 -219 5 -312 24 -429
20 -126 30 -166 40 -166 4 0 32 16 61 36 160 108 353 144 539 102 47 -11 94
-22 105 -24 13 -3 34 7 60 30 87 76 224 136 393 171 38 8 40 16 8 58 -23 31
-140 228 -239 404 -26 45 -78 144 -116 220 -172 345 -194 463 -195 1065 -1
179 -3 328 -6 331 -3 2 -14 -5 -26 -17z"/>
<path d="M4665 4474 c-33 -31 -89 -77 -125 -102 -111 -80 -106 -67 -65 -157
19 -43 35 -85 35 -95 0 -10 7 -21 16 -24 9 -3 14 -13 11 -20 -3 -8 3 -24 14
-37 10 -12 19 -30 19 -41 0 -10 4 -18 9 -18 8 0 24 -37 22 -52 0 -3 6 -12 14
-18 8 -7 15 -17 15 -21 0 -5 21 -51 46 -103 25 -51 46 -100 48 -108 1 -8 9
-27 19 -41 9 -15 26 -48 36 -75 11 -26 34 -79 51 -117 18 -39 40 -88 50 -110
10 -22 47 -101 83 -175 35 -74 99 -209 141 -300 114 -246 210 -434 221 -434
12 -1 23 31 91 262 65 224 89 262 163 262 17 0 133 -30 258 -66 125 -37 243
-69 262 -72 31 -4 33 -3 26 19 -3 13 -28 69 -55 124 -26 55 -79 165 -118 245
-138 288 -213 441 -462 953 -41 85 -70 132 -84 137 -20 9 -151 43 -265 70 -85
20 -251 90 -354 148 -21 12 -43 22 -50 22 -7 0 -39 -25 -72 -56z"/>
<path d="M3799 4275 c-13 -15 -32 -36 -41 -46 -10 -10 -18 -22 -18 -25 0 -8
-64 -87 -97 -120 -12 -13 -23 -28 -23 -34 0 -6 -4 -8 -10 -5 -5 3 -10 0 -10
-8 0 -8 -31 -43 -70 -77 -38 -34 -68 -67 -67 -73 1 -6 -3 -11 -8 -12 -6 0 -38
-29 -72 -64 -48 -49 -62 -71 -63 -95 0 -17 -1 -40 -1 -51 -1 -11 1 -36 4 -55
3 -19 6 -73 6 -120 0 -47 1 -98 1 -115 2 -41 9 -176 14 -260 2 -38 7 -151 11
-249 3 -99 8 -183 11 -187 2 -4 0 -10 -5 -13 -5 -4 -6 -18 -2 -34 4 -15 9 -90
11 -167 3 -147 7 -278 9 -307 2 -31 20 -20 95 55 139 139 319 307 324 303 2
-3 11 1 18 9 25 25 79 11 114 -29 18 -20 37 -36 44 -36 6 0 36 -29 66 -63 96
-109 218 -227 233 -227 13 0 15 15 12 93 -2 50 -7 119 -10 152 -11 97 -14 142
-19 290 -4 77 -9 187 -12 245 -7 116 -7 113 -1 155 3 17 1 35 -4 41 -5 6 -11
82 -14 170 -3 87 -8 185 -10 217 -3 41 -1 57 8 57 9 0 9 2 0 8 -7 4 -13 55
-17 132 -6 121 -10 207 -22 395 -2 49 -9 94 -14 99 -11 11 -11 11 -113 20 -43
4 -97 13 -120 22 -23 8 -49 17 -57 19 -8 2 -24 7 -36 10 -15 5 -28 -1 -45 -20z"/>
<path d="M5898 4118 c4 -69 -8 -107 -46 -141 -20 -18 -20 -19 20 -100 22 -45
72 -147 110 -227 169 -354 262 -540 269 -540 21 0 33 140 34 390 0 250 -10
360 -50 560 -3 14 -8 39 -11 57 -8 43 1 41 -245 59 l-85 6 4 -64z"/>
<path d="M4732 3078 c-5 -7 -20 -35 -32 -63 -46 -105 -95 -193 -152 -272 l-59
-83 5 -112 c3 -62 8 -178 12 -258 6 -137 5 -149 -16 -198 -43 -100 -127 -150
-239 -144 -69 4 -118 37 -258 175 -152 149 -122 146 -258 22 -49 -44 -97 -88
-109 -98 -12 -10 -33 -29 -48 -42 -108 -96 -232 -114 -327 -46 -18 13 -35 21
-37 18 -3 -3 -8 -32 -10 -64 -10 -130 -14 -153 -39 -214 -32 -80 -74 -143
-159 -239 -36 -41 -66 -78 -66 -82 0 -4 15 -14 33 -23 61 -28 95 -122 65 -178
-11 -23 -48 -60 -71 -74 -8 -4 -24 -42 -36 -83 -13 -41 -38 -108 -57 -148 -19
-41 -34 -75 -34 -77 0 -7 160 -42 235 -51 28 -3 52 -7 55 -9 40 -24 626 -24
740 0 13 2 42 7 65 11 34 5 142 27 245 49 279 62 686 250 945 437 305 222 605
550 784 858 79 137 208 420 213 471 3 19 -4 23 -62 35 -36 8 -141 36 -233 62
-92 27 -170 45 -173 41 -2 -4 -27 -81 -55 -171 -27 -90 -59 -182 -70 -206 -48
-98 -174 -146 -282 -108 -83 30 -101 54 -215 284 -59 119 -116 237 -126 262
-23 55 -157 330 -161 330 -1 0 -7 -6 -13 -12z"/>
<path d="M1978 3015 c-2 -3 -30 -10 -62 -16 -131 -24 -281 -133 -327 -238 -8
-17 -18 -31 -24 -31 -5 0 -39 19 -75 42 -87 55 -113 61 -270 64 l-135 2 -68
-40 c-162 -97 -244 -220 -249 -378 -3 -98 23 -209 69 -287 l24 -42 -47 -20
c-25 -12 -48 -21 -51 -21 -12 0 -115 -84 -142 -116 -106 -129 -135 -337 -69
-483 34 -73 85 -138 149 -187 32 -25 59 -42 59 -38 0 3 6 2 13 -4 21 -18 119
-41 190 -46 38 -3 72 -7 75 -10 3 -4 7 -57 8 -119 2 -87 8 -126 25 -172 40
-106 127 -199 239 -252 48 -23 71 -27 170 -29 122 -4 169 5 247 46 53 27 128
100 173 167 19 29 40 53 45 53 6 0 21 -9 35 -20 14 -11 31 -20 38 -20 6 0 12
-4 12 -9 0 -4 28 -21 61 -36 50 -22 78 -28 151 -30 162 -4 251 28 355 129 71
70 107 135 127 232 25 118 2 258 -59 354 l-23 37 80 38 c103 50 170 116 217
215 32 67 36 85 39 173 2 55 -1 120 -8 145 -29 119 -119 240 -212 288 -27 13
-50 24 -53 24 -3 0 -18 6 -34 14 -27 14 -100 24 -182 25 -35 1 -36 2 -33 33
12 96 5 165 -23 253 -52 161 -216 284 -394 296 -24 2 -47 7 -50 11 -3 5 -8 6
-11 3z m-56 -859 c106 -51 161 -105 205 -203 46 -101 39 -258 -15 -360 -32
-60 -107 -129 -182 -166 -53 -26 -78 -32 -140 -34 -41 -1 -89 -3 -107 -4 -17
-1 -46 5 -65 14 -18 8 -50 22 -71 31 -21 8 -36 20 -32 26 6 9 -8 14 -28 11 -5
-1 -11 8 -14 19 -3 11 -12 20 -19 20 -8 0 -14 5 -14 10 0 6 -8 18 -18 28 -45
45 -82 156 -82 249 0 50 24 153 45 193 40 75 194 204 223 186 4 -2 25 4 46 14
68 31 156 20 268 -34z"/>
<path d="M1587 1882 c-19 -21 -23 -115 -8 -154 25 -61 89 -107 157 -111 50 -4
114 8 114 21 0 4 -56 64 -124 134 -117 122 -124 127 -139 110z"/>
</g>
</svg>
